<?xml version="1.0" standalone="no"?>
<!DOCTYPE svg PUBLIC "-//W3C//DTD SVG 20010904//EN"
 "http://www.w3.org/TR/2001/REC-SVG-20010904/DTD/svg10.dtd">
<svg version="1.0" xmlns="http://www.w3.org/2000/svg"
 width="1200.000000pt" height="600.000000pt" viewBox="0 0 1200.000000 600.000000"
 preserveAspectRatio="xMidYMid meet">

<g transform="translate(0.000000,600.000000) scale(0.100000,-0.100000)"
fill="#000000" stroke="none">
<path d="M5845 4559 c-549 -57 -1029 -388 -1270 -874 -117 -236 -175 -477
-175 -730 0 -112 4 -123 49 -127 l36 -3 7 -60 c6 -53 27 -161 44 -220 5 -17 1
-15 -20 8 -15 15 -31 27 -35 27 -11 0 17 -117 35 -144 8 -13 32 -37 54 -55
l40 -32 -36 -49 c-19 -27 -37 -64 -40 -82 -3 -23 19 -102 75 -273 l80 -240 58
2 59 2 23 -72 c30 -93 60 -133 111 -147 52 -14 83 -7 252 51 l139 48 81 -35
c185 -79 375 -116 593 -116 217 0 372 29 574 109 l95 37 135 -46 c164 -56 199
-63 244 -49 49 17 75 49 113 143 19 46 38 82 43 81 51 -12 88 -13 104 -1 11 9
45 100 92 248 83 263 84 273 28 347 l-34 45 39 36 c54 51 72 82 81 141 9 56 9
56 -21 40 -19 -10 -20 -9 -14 12 3 13 14 69 23 124 8 55 17 106 19 113 2 7 19
12 40 12 l37 0 -6 188 c-7 260 -43 409 -152 639 -288 606 -936 971 -1600 902z
m182 -156 c42 -114 42 -117 16 -121 -17 -2 -24 3 -29 22 -5 22 -12 26 -45 26
-33 0 -40 -4 -45 -25 -4 -18 -13 -25 -31 -25 -19 0 -24 4 -19 17 4 9 19 56 33
105 26 86 27 88 58 88 29 0 32 -3 62 -87z m163 5 l15 -78 32 70 c29 66 33 70
64 70 l32 0 -7 -77 c-11 -116 -16 -133 -39 -133 -19 0 -20 4 -14 73 l6 72 -31
-67 c-21 -47 -36 -68 -49 -68 -19 0 -24 11 -35 75 -10 59 -23 78 -24 34 0 -67
-11 -99 -33 -99 -19 0 -20 4 -13 83 10 122 13 129 49 125 31 -3 32 -5 47 -80z
m-450 -10 c17 -110 13 -107 103 -82 12 4 17 0 17 -15 0 -16 -11 -22 -57 -31
-32 -6 -65 -12 -73 -13 -10 -2 -19 22 -31 88 -24 123 -25 115 23 124 3 0 11
-32 18 -71z m-105 -58 c62 -79 65 -85 46 -94 -16 -7 -26 -4 -41 9 -28 26 -84
10 -89 -25 -3 -24 -17 -40 -33 -40 -5 0 -8 49 -8 108 0 103 1 110 23 120 12 6
25 10 29 9 4 -1 37 -40 73 -87z m892 51 c-3 -9 -15 -44 -28 -78 -19 -52 -20
-64 -9 -78 7 -9 24 -15 39 -13 21 3 29 14 52 72 27 73 35 82 58 67 12 -8 11
-19 -8 -73 -34 -93 -46 -108 -86 -108 -48 0 -81 15 -101 45 -19 28 -13 58 26
150 16 36 22 43 40 38 14 -4 20 -11 17 -22z m-1116 -60 l23 -18 -23 -12 c-17
-10 -25 -10 -37 0 -19 16 -60 -2 -69 -30 -8 -25 21 -88 47 -102 24 -13 55 -3
68 22 15 26 4 40 -26 33 -35 -9 -32 22 6 41 42 22 47 20 70 -26 20 -39 21 -77
1 -64 -5 3 -21 -6 -34 -19 -33 -32 -70 -41 -107 -26 -65 27 -94 134 -47 178
45 42 93 51 128 23z m1330 -21 c16 -9 19 -22 19 -93 l1 -82 34 60 c19 33 37
59 40 58 38 -15 38 -19 -15 -111 -52 -91 -52 -91 -76 -75 -22 14 -24 22 -24
97 -1 64 -3 77 -12 61 -54 -100 -58 -105 -79 -95 -22 12 -23 9 43 123 21 37
41 67 44 67 3 0 14 -5 25 -10z m-1496 -152 c52 -75 54 -81 38 -94 -24 -18 -21
-18 -96 16 -37 17 -69 30 -72 30 -3 0 12 -24 34 -54 38 -51 39 -55 22 -70 -17
-16 -21 -12 -72 61 -30 42 -57 82 -61 88 -4 7 2 17 17 25 21 11 32 9 90 -19
37 -17 69 -31 71 -31 2 0 -12 25 -32 55 -30 45 -34 57 -24 70 7 8 16 12 21 10
4 -3 33 -42 64 -87z m993 37 c431 -83 796 -396 946 -813 45 -127 67 -262 67
-414 l0 -138 40 0 40 0 -6 -47 c-23 -161 -88 -351 -165 -483 -50 -86 -145
-212 -199 -264 l-40 -39 -53 21 c-29 12 -74 27 -100 34 -27 7 -48 15 -48 19 0
4 12 32 26 63 25 56 25 56 6 83 -38 54 -60 109 -77 193 -23 116 -25 120 -38
90 -5 -14 -26 -60 -45 -104 -27 -61 -33 -87 -29 -117 5 -36 1 -44 -45 -94 -27
-30 -53 -55 -57 -55 -4 0 12 21 35 47 24 26 42 48 40 50 -5 5 -98 -38 -128
-59 -16 -11 -28 -15 -28 -9 0 7 -10 7 -30 0 -16 -6 -35 -9 -42 -7 -7 3 11 10
40 17 48 12 56 18 92 72 39 56 110 187 110 201 0 4 -24 -9 -52 -28 -29 -19
-86 -48 -128 -65 -41 -17 -78 -36 -81 -42 -4 -5 -10 -38 -14 -71 -3 -34 -11
-68 -16 -76 -8 -11 -9 -6 -5 20 23 153 27 147 -73 98 -50 -24 -83 -33 -138
-36 l-73 -4 -1 -37 -1 -36 -11 43 c-5 23 -15 42 -20 42 -6 0 -30 9 -53 20 -23
11 -70 29 -105 39 -35 10 -72 22 -81 25 -29 13 -48 -39 -37 -103 4 -29 10 -55
11 -56 2 -1 12 -7 23 -13 19 -11 18 -11 -7 -12 -15 0 -30 5 -33 10 -3 6 -11
10 -16 10 -6 0 -7 -6 -3 -12 5 -7 -3 -5 -16 5 -34 24 -140 78 -140 72 0 -3 19
-26 41 -50 23 -25 40 -47 38 -49 -4 -3 -197 -45 -251 -54 -25 -4 -30 1 -52 51
-51 116 -56 223 -25 572 32 365 18 497 -66 624 l-36 54 48 51 c26 28 77 81
113 119 l64 67 188 0 188 0 0 25 c0 14 7 41 14 60 l15 35 -229 0 -229 0 -168
-180 c-92 -100 -169 -184 -170 -188 -3 -10 65 -52 85 -52 22 0 75 -81 98 -150
24 -71 24 -245 -1 -494 -24 -251 -18 -433 19 -536 15 -41 28 -79 29 -84 1 -5
-24 -19 -55 -32 l-58 -22 -57 61 c-53 58 -104 128 -180 251 -65 103 -137 318
-158 469 l-6 47 38 0 38 0 1 148 c0 163 16 260 66 402 156 443 562 771 1029
830 98 12 284 5 387 -15z m722 -31 c0 -4 -97 -131 -122 -159 -5 -6 -14 -3 -25
7 -15 16 -14 20 12 55 82 110 96 123 116 113 10 -6 19 -13 19 -16z m30 -132
l-40 -74 47 28 c106 62 100 59 117 45 9 -7 16 -16 16 -20 0 -3 -43 -28 -95
-56 l-95 -50 -20 21 -21 21 46 98 c44 96 46 98 65 80 20 -18 20 -19 -20 -93z
m-1947 -18 c50 -26 94 -48 96 -50 3 -3 -3 -12 -12 -21 -13 -13 -21 -14 -40 -6
-21 10 -28 8 -50 -15 -21 -22 -24 -31 -15 -46 8 -14 6 -23 -10 -38 l-20 -20
-19 43 c-67 152 -68 157 -48 179 10 11 20 20 22 20 2 0 45 -21 96 -46z m2211
-166 c-11 -17 -31 -6 -60 31 -27 35 -31 38 -49 25 -18 -13 -17 -15 13 -53 27
-33 29 -41 17 -51 -12 -10 -19 -6 -39 17 -14 15 -26 31 -26 36 0 12 -27 8 -39
-6 -8 -10 -3 -24 20 -55 28 -38 31 -62 9 -62 -10 0 -104 119 -99 124 2 2 39
31 83 64 l79 62 48 -62 c26 -34 46 -66 43 -70z m-2271 -44 c-20 -38 -19 -38
-78 6 -61 45 -62 43 -8 -31 20 -29 31 -53 27 -63 -8 -20 -9 -20 -79 4 -32 11
-60 18 -62 16 -2 -2 19 -20 46 -41 44 -32 49 -39 40 -56 -10 -19 -11 -19 -42
3 -73 50 -137 101 -137 107 1 3 9 16 20 29 l19 22 66 -25 c37 -14 69 -25 72
-25 3 0 -16 29 -41 64 l-46 64 21 26 20 25 82 -61 c45 -33 81 -62 80 -64z
m2345 -53 c17 -33 32 -69 32 -80 0 -27 -26 -51 -55 -51 -13 0 -28 -6 -32 -13
-4 -7 -22 -23 -40 -35 l-32 -23 -12 22 c-10 19 -7 25 20 46 30 24 30 25 16 54
-18 34 -18 34 -50 13 -27 -18 -55 -13 -55 10 0 12 148 112 170 115 3 0 20 -26
38 -58z m77 -167 c39 -15 61 -119 30 -144 -22 -18 -30 -5 -30 48 0 40 -3 47
-20 47 -18 0 -20 -6 -17 -61 5 -80 -23 -110 -83 -88 -20 8 -55 75 -55 106 0
25 25 68 40 68 16 0 21 -38 9 -59 -17 -26 3 -74 29 -69 14 3 17 13 14 64 -4
81 24 110 83 88z m-2621 -60 c18 -7 20 -22 7 -43 -7 -10 -13 -11 -30 -2 -17
10 -19 15 -11 31 12 22 12 22 34 14z m-131 -53 c8 -10 30 -17 61 -19 27 -1 51
-3 52 -5 2 -2 0 -13 -3 -26 -5 -21 -10 -22 -45 -17 -37 6 -40 5 -53 -26 -13
-33 -13 -33 23 -46 44 -15 41 -12 31 -39 l-8 -23 -88 31 c-48 18 -92 35 -97
39 -13 12 23 112 50 137 25 23 57 21 77 -6z m2839 -91 c0 -5 1 -15 2 -21 2
-18 -186 -71 -196 -56 -17 26 -5 36 65 57 39 11 77 23 82 25 20 7 45 5 47 -5z
m36 -153 c10 -54 11 -82 4 -89 -15 -15 -32 0 -32 28 0 28 -6 29 -103 10 -58
-11 -70 -11 -74 0 -11 29 7 40 81 53 l76 12 0 35 c0 28 4 35 17 32 13 -2 21
-23 31 -81z m-2838 -92 c0 -20 -5 -25 -25 -25 -20 0 -25 5 -25 25 0 20 5 25
25 25 20 0 25 -5 25 -25z m2858 -42 c2 -16 -7 -27 -37 -44 -23 -12 -41 -25
-41 -28 0 -3 18 -14 40 -23 32 -13 40 -22 40 -42 l0 -26 -60 30 c-40 20 -74
30 -105 30 -41 0 -45 2 -45 25 0 23 4 25 43 26 33 0 52 8 92 39 54 42 68 45
73 13z m-3035 -38 c15 -19 32 -35 38 -35 5 0 33 16 62 35 28 19 55 35 59 35 5
0 8 -11 8 -25 0 -17 -12 -33 -46 -55 -36 -26 -43 -34 -33 -46 6 -8 24 -14 39
-14 33 0 39 -6 33 -31 -6 -21 -40 -24 -150 -13 -57 6 -60 8 -55 31 4 23 8 25
45 20 l40 -5 -42 42 c-28 28 -41 51 -41 69 0 36 9 34 43 -8z m2127 -679 c-25
-59 -60 -119 -66 -113 -2 2 7 24 20 48 14 24 31 75 38 112 12 64 13 66 21 36
6 -24 3 -44 -13 -83z m-1871 -23 c11 -10 28 -35 36 -56 14 -35 14 -38 -2 -43
-10 -4 -56 -22 -103 -40 -105 -42 -140 -44 -140 -9 0 38 23 76 74 123 51 47
98 56 135 25z m2592 -9 c47 -32 89 -92 92 -130 2 -25 -2 -29 -26 -32 -21 -3
-199 56 -226 75 -10 7 14 59 39 84 36 36 72 37 121 3z m-2491 -124 c16 0 19
-32 5 -60 -8 -15 -40 -49 -70 -76 -31 -26 -61 -56 -67 -67 -17 -33 -11 -87 21
-181 17 -49 28 -92 26 -96 -6 -10 -62 -18 -73 -11 -10 6 -146 411 -141 415 18
11 267 84 277 81 8 -3 17 -5 22 -5z m2442 -36 c91 -28 127 -43 127 -54 0 -8
-30 -103 -67 -210 l-67 -195 -30 3 c-55 5 -55 4 -18 122 23 74 32 121 28 138
-3 14 -40 59 -81 99 -53 52 -74 79 -74 97 0 25 24 46 44 41 6 -1 68 -20 138
-41z m-2348 -113 l45 -89 -77 -28 c-86 -31 -148 -37 -162 -14 -23 36 -10 66
63 142 39 41 75 76 79 77 4 0 28 -39 52 -88z m2202 21 c68 -64 94 -98 94 -121
0 -22 -41 -51 -70 -51 -35 0 -192 50 -188 59 14 27 93 181 93 181 0 0 32 -30
71 -68z m-981 28 c260 -23 455 -64 752 -161 119 -39 230 -69 253 -69 22 0 40
-3 40 -7 0 -11 -73 -206 -98 -264 -27 -62 -73 -99 -123 -99 -22 0 -102 20
-177 44 -589 192 -1085 192 -1674 0 -236 -76 -249 -69 -333 166 -30 85 -55
156 -55 157 0 2 19 3 42 3 25 0 124 28 247 69 419 141 771 191 1126 161z m95
-459 l55 -7 -35 -16 c-19 -9 -64 -28 -99 -42 -88 -36 -159 -83 -177 -119 l-16
-30 -38 45 c-30 34 -61 55 -142 92 -180 83 -172 77 -107 73 41 -3 80 -15 150
-49 51 -25 84 -38 71 -28 -16 14 -22 29 -22 61 l0 42 153 -7 c83 -5 177 -11
207 -15z"/>
<path d="M5953 4410 c-8 -31 -7 -35 10 -38 27 -5 30 2 14 39 l-14 34 -10 -35z"/>
<path d="M5550 4333 c0 -36 2 -41 20 -36 30 8 31 16 5 49 l-24 29 -1 -42z"/>
<path d="M5802 3720 c0 -14 2 -19 5 -12 2 6 2 18 0 25 -3 6 -5 1 -5 -13z"/>
<path d="M5947 3725 c-7 -16 8 -29 23 -20 15 9 12 35 -4 35 -8 0 -16 -7 -19
-15z"/>
<path d="M6177 3733 c-4 -3 -7 -13 -7 -21 0 -12 3 -12 15 -2 8 7 15 16 15 21
0 11 -14 12 -23 2z"/>
<path d="M6280 3725 c0 -8 5 -15 10 -15 6 0 10 7 10 15 0 8 -4 15 -10 15 -5 0
-10 -7 -10 -15z"/>
<path d="M6340 3725 c0 -13 26 -15 173 -15 l173 0 38 -39 c21 -22 47 -42 57
-44 24 -6 17 5 -37 67 l-42 46 -181 0 c-154 0 -181 -2 -181 -15z"/>
<path d="M5810 3683 c0 -6 9 -21 21 -34 l20 -24 -17 30 c-24 39 -24 40 -24 28z"/>
<path d="M6234 3612 c-21 -14 -124 -155 -118 -161 4 -3 9 0 11 7 3 7 31 44 64
83 64 77 73 91 43 71z"/>
<path d="M6309 3579 c-11 -23 -39 -61 -61 -85 l-41 -44 47 0 c25 0 46 -2 46
-4 0 -2 -16 -20 -36 -41 l-36 -39 114 -55 c127 -62 208 -120 268 -191 53 -63
116 -183 135 -255 l15 -60 -5 113 c-8 187 19 314 86 416 l31 46 -32 38 c-18
20 -69 74 -113 120 l-80 82 -158 0 -159 0 -21 -41z"/>
<path d="M6214 3339 c-3 -6 -92 -9 -230 -8 -213 1 -225 0 -258 -21 -43 -26
-74 -68 -83 -110 l-6 -32 59 30 c32 16 76 35 97 42 30 9 37 16 32 29 -23 54
-34 51 178 51 107 0 197 -4 199 -8 4 -11 78 -3 78 8 0 13 -59 30 -66 19z"/>
<path d="M6208 3293 c-48 -7 -30 -23 26 -23 29 0 69 -3 87 -7 l34 -6 -19 21
c-19 22 -55 26 -128 15z"/>
<path d="M6360 3271 c6 -12 17 -21 25 -21 21 0 19 5 -11 25 -25 16 -25 16 -14
-4z"/>
<path d="M5601 3233 c-45 -45 -92 -135 -78 -149 3 -4 29 13 56 37 36 31 51 51
51 69 0 14 9 40 20 58 28 46 8 40 -49 -15z"/>
<path d="M6170 3253 c0 -5 18 -16 41 -23 22 -8 70 -31 105 -51 l64 -38 0 43
c0 26 -6 48 -14 55 -18 15 -196 28 -196 14z"/>
<path d="M5774 3221 c-47 -17 -92 -39 -123 -59 -11 -8 -10 -15 5 -41 21 -36
27 -37 62 -12 15 10 51 30 80 45 51 26 58 38 46 70 -7 19 -6 19 -70 -3z"/>
<path d="M6390 3211 c4 -15 6 -39 3 -52 -3 -19 8 -36 51 -79 l56 -54 0 45 c0
57 -41 142 -76 157 -38 18 -43 15 -34 -17z"/>
<path d="M6156 3204 c-8 -31 -13 -26 50 -57 28 -14 66 -38 83 -53 l33 -27 25
26 c23 23 25 28 12 43 -15 18 -164 94 -185 94 -6 0 -15 -12 -18 -26z"/>
<path d="M5481 3112 c-24 -31 -51 -73 -61 -93 l-19 -36 26 5 c32 6 82 60 83
88 0 12 5 35 11 53 18 50 6 46 -40 -17z"/>
<path d="M5794 3140 c-32 -17 -70 -38 -83 -48 l-23 -19 33 -21 c19 -12 28 -22
20 -22 -8 0 -24 9 -36 20 l-22 21 -57 -61 c-31 -34 -56 -68 -56 -76 0 -26 -15
-15 -32 24 l-16 37 -12 -27 c-15 -31 -31 -29 -23 3 4 16 2 20 -8 17 -8 -3 -13
-15 -11 -27 4 -27 -14 -51 -38 -51 -10 0 -21 -6 -23 -12 -3 -7 -6 -3 -6 9 -1
36 -20 36 -29 1 -11 -40 -8 -45 14 -27 10 8 20 13 23 11 3 -1 26 2 51 8 60 14
113 18 125 10 12 -8 126 -33 129 -28 1 1 15 29 31 61 16 31 52 79 80 106 28
26 49 53 47 60 -5 15 40 31 89 31 21 0 39 5 39 10 0 12 -5 12 -71 0 -45 -9
-56 -8 -65 5 -10 13 -19 11 -70 -15z"/>
<path d="M6496 3155 c4 -11 10 -49 12 -84 4 -71 29 -124 44 -97 13 23 55 20
68 -4 13 -24 -3 -60 -25 -60 -8 0 -15 -3 -15 -7 1 -10 72 -44 79 -38 9 10 -29
111 -66 174 -40 66 -111 152 -97 116z"/>
<path d="M6015 3150 c-3 -4 18 -10 46 -12 65 -7 80 -21 52 -50 l-22 -21 31
-38 c26 -32 36 -38 57 -33 36 8 131 54 131 63 0 9 -73 62 -118 85 -25 13 -37
14 -47 6 -9 -7 -31 -8 -69 -2 -31 5 -59 6 -61 2z"/>
<path d="M5566 3098 l-48 -43 11 -40 c18 -66 27 -74 48 -45 10 14 35 44 55 66
l38 42 -17 31 c-10 17 -23 31 -28 31 -6 0 -32 -19 -59 -42z"/>
<path d="M6361 3089 l-22 -30 34 -42 c18 -23 42 -55 52 -72 16 -26 14 -26 -11
5 -16 19 -42 50 -59 68 l-30 33 -55 -30 c-30 -17 -64 -31 -76 -31 -11 0 -23
-3 -27 -6 -9 -9 52 -129 66 -127 6 1 55 13 107 26 99 26 133 50 146 102 7 29
-19 70 -69 108 l-34 26 -22 -30z"/>
<path d="M5827 3038 c-23 -24 -56 -70 -74 -104 l-32 -60 50 -17 c54 -17 86
-12 121 20 10 9 18 11 18 6 0 -6 7 -14 16 -17 13 -5 15 3 12 46 -3 46 -6 53
-28 59 -24 7 -24 7 -2 8 19 1 22 6 22 45 0 44 -10 56 -46 56 -8 0 -34 -19 -57
-42z"/>
<path d="M6080 3017 c0 -33 3 -37 25 -37 14 0 25 6 25 13 0 8 -11 24 -25 37
l-25 23 0 -36z"/>
<path d="M5496 3032 c-3 -5 1 -15 9 -22 16 -14 20 -3 6 19 -5 8 -11 9 -15 3z"/>
<path d="M6482 2949 l-23 -39 24 0 c14 0 39 -3 56 -6 l32 -7 -21 36 c-35 58
-43 60 -68 16z"/>
<path d="M6076 2955 c-3 -9 -6 -41 -6 -71 0 -47 3 -54 19 -54 11 0 23 -4 26
-10 4 -6 -5 -10 -19 -10 -16 0 -26 -6 -26 -15 0 -8 7 -15 15 -15 8 0 15 -7 15
-15 0 -16 27 -15 100 5 29 7 37 31 18 51 -7 8 -14 25 -16 38 -1 13 -12 43 -25
65 -19 35 -28 41 -58 44 -26 2 -38 -1 -43 -13z m92 -166 c-3 -8 -7 -3 -11 10
-4 17 -3 21 5 13 5 -5 8 -16 6 -23z"/>
<path d="M5499 2813 c-12 -27 -22 -61 -23 -77 -1 -28 9 -38 110 -103 18 -12
18 -12 -1 -6 -11 3 -42 22 -69 40 -56 40 -58 39 -76 -49 -11 -60 -3 -113 23
-146 14 -17 140 -92 155 -92 7 0 12 17 13 43 1 41 1 41 12 15 6 -16 14 -28 19
-28 4 0 8 -8 8 -17 0 -15 -2 -15 -9 -4 -7 11 -11 10 -22 -7 l-13 -20 -50 25
c-28 14 -63 34 -78 45 -16 11 -28 14 -28 8 0 -36 126 -243 155 -254 30 -11 32
-7 24 37 -4 23 -8 45 -9 50 0 4 -10 7 -22 7 -21 1 -22 1 -5 11 13 8 17 18 13
35 -6 23 2 30 29 24 6 -1 19 -3 30 -5 11 -1 40 -5 65 -10 l45 -7 -22 24 c-26
28 -30 53 -8 62 8 3 15 17 15 30 0 14 5 37 12 51 10 22 9 28 -3 36 -12 9 -12
10 1 6 11 -3 15 -17 13 -48 -1 -35 1 -39 8 -21 11 30 37 28 129 -8 41 -17 83
-30 93 -30 10 0 51 16 90 35 39 19 79 35 90 35 14 0 18 5 14 19 -4 17 5 23 52
39 31 11 63 23 73 27 14 6 15 2 7 -37 -21 -90 -32 -123 -50 -147 -16 -20 -26
-61 -16 -61 12 0 120 41 157 60 86 43 110 67 110 109 0 39 -18 150 -27 164 -3
5 -12 2 -21 -6 -10 -8 -28 -20 -42 -26 -25 -12 -25 -12 -4 6 11 10 30 25 42
33 l23 15 -19 55 c-35 98 -43 110 -72 110 -15 0 -54 -16 -86 -35 -33 -20 -69
-38 -81 -41 -26 -7 -28 -21 -12 -76 9 -33 14 -38 39 -38 17 0 30 5 30 12 0 6
12 -2 28 -19 15 -17 34 -28 42 -25 8 3 13 2 10 -1 -3 -3 -61 -26 -130 -52 -69
-25 -155 -60 -191 -76 l-66 -31 -69 28 c-112 45 -248 84 -257 75 -5 -5 -13
-24 -18 -43 -8 -31 -8 -31 -5 -3 2 17 6 37 10 46 5 12 -1 19 -26 26 -18 6 -25
11 -15 12 13 1 16 7 12 24 -3 12 3 55 13 95 l19 72 -33 25 c-25 19 -45 25 -84
25 l-51 0 -20 -47z m148 -315 c-2 -18 -4 -6 -4 27 0 33 2 48 4 33 2 -15 2 -42
0 -60z m20 -65 c-3 -10 -5 -2 -5 17 0 19 2 27 5 18 2 -10 2 -26 0 -35z"/>
<path d="M5656 2845 c25 -19 44 -19 44 0 0 10 -10 15 -32 15 -30 0 -31 -1 -12
-15z"/>
<path d="M6273 2848 c-43 -9 -48 -17 -35 -50 7 -16 11 -16 57 6 28 13 59 31
70 40 19 15 19 15 -15 15 -19 -1 -54 -5 -77 -11z"/>
<path d="M6480 2856 c0 -2 11 -29 25 -60 14 -31 25 -63 25 -71 0 -21 13 -18
38 8 28 30 28 39 -3 75 -20 24 -85 60 -85 48z"/>
<path d="M5710 2831 c0 -13 11 -23 36 -31 31 -11 37 -10 49 7 12 16 10 19 -18
30 -48 17 -67 16 -67 -6z"/>
<path d="M5456 2815 c-30 -32 -50 -126 -39 -180 l9 -40 12 59 c8 40 9 63 2 70
-15 15 -12 30 4 17 10 -9 17 0 33 44 22 60 15 69 -21 30z"/>
<path d="M5920 2806 c0 -17 5 -26 16 -26 10 0 14 7 12 22 -5 32 -28 35 -28 4z"/>
<path d="M5695 2788 c-13 -41 -25 -97 -25 -121 0 -25 2 -26 20 -15 11 7 20 20
20 29 0 9 11 32 25 52 l24 37 -22 15 c-26 18 -36 19 -42 3z"/>
<path d="M6755 2640 c-12 -188 -10 -298 6 -365 11 -44 13 -47 20 -25 11 40 8
283 -5 420 l-12 125 -9 -155z"/>
<path d="M5915 2760 c-3 -5 3 -10 14 -10 12 0 21 5 21 10 0 6 -6 10 -14 10 -8
0 -18 -4 -21 -10z"/>
<path d="M6180 2754 c-25 -7 -62 -13 -82 -13 -21 -1 -38 -5 -38 -11 0 -5 3
-11 8 -11 4 -1 16 -3 27 -5 11 -2 38 -8 60 -13 52 -13 58 -13 49 0 -5 8 1 10
20 7 24 -5 27 -3 22 16 -3 11 -6 27 -6 34 0 14 0 14 -60 -4z m5 -43 c-6 -5
-25 10 -25 20 0 5 6 4 14 -3 8 -7 12 -15 11 -17z"/>
<path d="M5896 2724 c-9 -23 -3 -26 28 -18 14 3 26 12 26 20 0 20 -46 18 -54
-2z"/>
<path d="M6569 2713 l-25 -28 16 -85 16 -85 13 70 c7 39 11 89 9 113 l-3 44
-26 -29z"/>
<path d="M5933 2653 c-18 -7 -16 -23 3 -23 8 0 12 -4 9 -10 -3 -6 5 -10 19
-10 30 0 42 16 26 35 -12 15 -34 18 -57 8z"/>
<path d="M5363 2500 c4 -60 55 -187 56 -140 1 14 -13 64 -29 110 l-30 85 3
-55z"/>
<path d="M5781 2374 c0 -11 3 -14 6 -6 3 7 2 16 -1 19 -3 4 -6 -2 -5 -13z"/>
<path d="M5430 2345 c0 -45 20 -74 68 -102 49 -29 52 -26 14 19 -16 18 -41 51
-55 73 l-27 40 0 -30z"/>
<path d="M6246 2338 c3 -4 9 -8 15 -8 5 0 9 4 9 8 0 5 -7 9 -15 9 -8 0 -12 -4
-9 -9z"/>
<path d="M6501 2258 l-45 -50 43 21 c43 22 55 38 49 64 -2 9 -19 -3 -47 -35z"/>
<path d="M4960 4004 c0 -3 7 -18 15 -35 13 -25 19 -28 35 -19 11 6 20 12 20
14 0 2 -16 13 -35 25 -19 11 -35 18 -35 15z"/>
<path d="M7265 3738 c-11 -6 -21 -12 -23 -13 -1 -1 3 -14 9 -28 14 -31 38 -42
55 -25 10 10 9 19 -4 45 -15 27 -20 30 -37 21z"/>
<path d="M4580 3414 c-6 -14 -10 -29 -10 -34 0 -8 24 -20 40 -20 11 0 28 52
23 68 -8 22 -43 13 -53 -14z"/>
<path d="M5815 1930 c0 -77 1 -80 24 -80 19 0 21 3 11 15 -7 9 -10 38 -8 80 2
53 0 65 -12 65 -12 0 -15 -16 -15 -80z"/>
<path d="M5886 1988 c-24 -34 -20 -85 9 -113 29 -30 49 -31 75 -5 27 27 28
100 2 123 -26 24 -68 21 -86 -5z m78 -4 c18 -47 -3 -124 -33 -124 -28 0 -48
71 -32 113 12 31 55 38 65 11z"/>
<path d="M6016 2000 c5 -5 7 -38 4 -75 -4 -42 -2 -65 5 -65 6 0 9 16 7 39 -8
77 1 80 44 16 43 -66 40 -69 46 43 2 31 -1 52 -7 52 -7 0 -9 -14 -7 -34 8 -67
-1 -72 -35 -18 -19 30 -39 52 -50 52 -11 0 -14 -3 -7 -10z"/>
<path d="M5697 1993 c-15 -2 -25 -8 -22 -13 3 -4 14 -6 24 -3 16 4 20 -3 26
-56 4 -33 4 -65 0 -70 -3 -7 3 -11 15 -11 15 0 20 5 17 14 -3 8 -9 43 -13 77
-7 60 -6 62 15 56 11 -3 21 -1 21 4 0 9 -31 10 -83 2z"/>
<path d="M6346 1975 c-22 -23 -20 -38 10 -74 27 -32 26 -61 0 -61 -8 0 -20 8
-25 18 -10 16 -10 16 -11 0 0 -22 45 -35 65 -18 22 18 18 45 -11 79 -22 27
-24 34 -13 47 12 14 15 14 31 -6 18 -22 18 -22 18 -1 0 12 -4 21 -9 21 -5 0
-16 3 -24 6 -8 3 -22 -2 -31 -11z"/>
<path d="M5605 1945 c-3 -22 -10 -59 -14 -82 -6 -31 -5 -43 3 -43 7 0 12 12
11 28 0 20 5 28 22 30 23 3 49 -29 35 -43 -4 -5 1 -5 11 -2 10 4 20 7 22 7 3
0 -31 61 -74 130 -6 11 -10 5 -16 -25z m35 -47 c0 -4 -7 -8 -15 -8 -10 0 -15
10 -15 28 1 26 1 26 15 8 8 -11 15 -23 15 -28z"/>
<path d="M5519 1963 c-2 -10 -1 -14 10 -64 l9 -42 -47 47 c-25 25 -53 46 -60
46 -9 0 -10 -4 -4 -12 13 -17 34 -128 27 -139 -3 -5 -1 -9 4 -9 16 0 21 12 13
29 -5 9 -11 34 -15 56 l-7 40 52 -53 52 -53 -8 53 c-5 29 -9 65 -9 81 -1 24
-14 39 -17 20z"/>
<path d="M6444 1961 c3 -5 1 -34 -5 -65 -14 -65 -3 -86 41 -86 29 0 41 19 56
85 4 17 11 36 17 43 7 8 5 12 -5 12 -10 0 -17 -15 -22 -45 -3 -25 -10 -55 -16
-65 -12 -23 -48 -27 -56 -5 -6 14 7 84 21 118 5 13 2 17 -15 17 -11 0 -19 -4
-16 -9z"/>
<path d="M5365 1930 c-11 -5 -15 -9 -9 -9 13 -1 48 -127 39 -141 -3 -4 3 -6
14 -3 17 4 17 7 4 46 -8 23 -16 59 -16 79 -2 41 -2 41 -32 28z"/>
<path d="M6585 1905 c-42 -41 -30 -113 20 -128 18 -6 17 -5 -2 9 -31 22 -31
74 0 110 27 31 53 28 66 -8 8 -21 8 -21 13 -1 4 15 -1 24 -19 32 -36 16 -51
14 -78 -14z"/>
<path d="M5278 1907 c-29 -8 -38 -16 -38 -31 1 -19 2 -19 11 -3 5 9 14 17 19
17 13 0 43 -107 36 -126 -5 -13 15 -20 26 -8 3 3 -3 33 -13 67 -24 77 -23 81
1 74 13 -3 20 0 20 9 0 16 -9 16 -62 1z"/>
<path d="M6710 1865 c-30 -32 -33 -91 -5 -111 21 -15 61 -19 69 -6 3 5 -8 6
-24 4 -21 -3 -31 1 -40 17 -16 31 5 89 37 104 22 10 27 8 44 -13 15 -20 19
-22 19 -8 0 19 -28 38 -58 38 -10 0 -29 -11 -42 -25z"/>
<path d="M5180 1870 c-20 -5 -25 -12 -25 -35 0 -25 7 -33 38 -47 24 -12 37
-25 37 -38 0 -23 -28 -27 -49 -7 -11 10 -13 9 -7 -6 3 -10 6 -21 6 -23 0 -11
40 -2 54 12 25 25 19 52 -16 74 -52 30 -61 41 -49 53 9 9 17 8 31 -1 20 -12
26 -6 12 14 -4 6 -18 8 -32 4z"/>
<path d="M6836 1827 c-3 -18 -15 -50 -25 -70 l-18 -36 43 -15 c33 -11 44 -12
47 -2 4 9 -2 12 -16 9 -36 -6 -50 9 -36 39 8 18 17 24 30 21 10 -3 19 -10 19
-17 0 -6 5 -4 10 4 15 23 12 28 -15 22 -19 -3 -25 0 -25 14 0 42 39 54 62 20
5 -8 8 -7 8 1 0 10 -59 43 -75 43 -2 0 -6 -15 -9 -33z"/>
<path d="M5063 1825 l-32 -13 20 -38 c10 -21 22 -53 25 -71 3 -18 9 -33 12
-33 21 0 72 26 72 38 0 10 -3 10 -16 -2 -23 -24 -41 -19 -53 14 -10 30 -3 37
32 31 4 0 7 6 7 14 0 13 -4 14 -20 5 -24 -13 -36 -8 -43 20 -6 22 25 46 43 35
6 -3 10 -1 10 4 0 14 -18 13 -57 -4z"/>
<path d="M6952 1798 c-17 -17 -15 -44 5 -74 15 -24 15 -26 -1 -42 -16 -16 -18
-15 -36 8 -14 18 -20 21 -20 9 0 -9 11 -22 25 -29 23 -12 28 -12 48 8 21 22
22 23 5 53 -23 40 -23 59 2 59 14 0 20 -7 20 -22 1 -21 1 -22 11 -5 9 14 7 22
-8 32 -22 18 -36 18 -51 3z"/>
<path d="M4915 1756 c-21 -9 -25 -14 -14 -18 8 -3 26 -33 39 -66 26 -64 34
-68 78 -29 28 26 28 66 1 101 -23 29 -56 33 -104 12z m84 -22 c25 -32 27 -67
5 -88 -8 -9 -18 -16 -20 -16 -10 0 -54 111 -49 121 11 17 44 9 64 -17z"/>
<path d="M7040 1745 c-10 -12 -10 -21 -1 -41 25 -55 2 -95 -30 -53 -14 18 -19
20 -19 8 0 -9 12 -22 26 -30 24 -12 28 -12 45 10 17 21 17 26 4 58 -8 19 -12
39 -9 44 10 17 33 9 37 -13 3 -21 4 -21 12 -4 14 32 -41 50 -65 21z"/>
<path d="M5985 1540 c10 -11 20 -20 23 -20 3 0 -3 9 -13 20 -10 11 -20 20 -23
20 -3 0 3 -9 13 -20z"/>
</g>
</svg>
